<svg xmlns="http://www.w3.org/2000/svg" x="0px" y="0px" width="100" height="100" viewBox="0 0 64 64">
<ellipse cx="32.607" cy="61" opacity=".3" rx="23" ry="3"></ellipse><path fill="#98c900" d="M26,55c-1.27,0-2.497-0.484-3.426-1.359l-17-16c-2.011-1.893-2.107-5.057-0.214-7.068 c1.892-2.011,5.057-2.108,7.068-0.214L25.603,42.76l25.593-30.005c1.792-2.101,4.948-2.352,7.049-0.56 c2.101,1.792,2.352,4.948,0.56,7.049l-29,34c-0.888,1.042-2.164,1.673-3.531,1.748C26.182,54.998,26.091,55,26,55z"></path><line x1="10.027" x2="14.376" y1="32.907" y2="37" fill="none" stroke="#fff" stroke-linecap="round" stroke-linejoin="round" stroke-miterlimit="10" stroke-width="3"></line><g><path fill="#fff" d="M34.804,39.677c1.792-2.101,1.542-5.257-0.559-7.049L25.603,42.76L12.427,30.359 c-1.344-1.266-3.199-1.621-4.849-1.131C7.188,30.905,7.656,32.735,9,34l13.176,12.401c0.93,0.875,2.156,1.359,3.427,1.359 c0.091,0,0.182-0.002,0.273-0.007c1.367-0.075,2.643-0.707,3.531-1.748L34.804,39.677z" opacity=".3"></path><path d="M59.697,14.345C58.002,14.039,56.198,14.595,55,16L40.708,32.755 c-1.792,2.101-1.542,5.257,0.56,7.049l0,0l17.536-20.56C60.002,17.84,60.267,15.97,59.697,14.345z" opacity=".15"></path></g>
</svg>